HIERARCHY
ROOT SpineBase
{
  OFFSET 0.000000 0.000000 0.000000
  CHANNELS 6 Xposition Yposition Zposition Zrotation Xrotation Yrotation
  JOINT SpineMid
  {
    OFFSET 0.000000 31.864433 0.000000
    CHANNELS 3 Zrotation Xrotation Yrotation
    JOINT SpineShoulder
    {
      OFFSET 0.148062 23.700809 -0.599572
      CHANNELS 3 Zrotation Xrotation Yrotation
      JOINT Neck
      {
        OFFSET 0.070615 7.853657 -0.524127
        CHANNELS 3 Zrotation Xrotation Yrotation
        JOINT Head
        {
          OFFSET 5.237679 12.417656 3.394588
          CHANNELS 3 Zrotation Xrotation Yrotation
          End Site
          {
            OFFSET 0 0 0
          }
        }
      }
      JOINT ShoulderLeft
      {
        OFFSET -10.606104 -2.947249 -12.700944
        CHANNELS 3 Zrotation Xrotation Yrotation
        JOINT ElbowLeft
        {
          OFFSET -6.521007 -26.740347 -7.781751
          CHANNELS 3 Zrotation Xrotation Yrotation
          JOINT WristLeft
          {
            OFFSET 2.108994 -23.173679 -5.396158
            CHANNELS 3 Zrotation Xrotation Yrotation
            JOINT HandLeft
            {
              OFFSET 1.457624 -3.649219 2.414436
              CHANNELS 3 Zrotation Xrotation Yrotation
              JOINT HandTipLeft
              {
                OFFSET 0.850386 -8.424309 -0.899404
                CHANNELS 3 Zrotation Xrotation Yrotation
                End Site
                {
                  OFFSET 0 0 0
                }
              }
              JOINT ThumbLeft
              {
                OFFSET 4.730414 1.912209 3.540161
                CHANNELS 3 Zrotation Xrotation Yrotation
                End Site
                {
                  OFFSET 0 0 0
                }
              }
            }
          }
        }
      }
      JOINT ShoulderRight
      {
        OFFSET 11.458151 -6.466393 11.008614
        CHANNELS 3 Zrotation Xrotation Yrotation
        JOINT ElbowRight
        {
          OFFSET 2.065466 -31.008983 6.425421
          CHANNELS 3 Zrotation Xrotation Yrotation
          JOINT WristRight
          {
            OFFSET 0.724387 -23.205772 -5.498013
            CHANNELS 3 Zrotation Xrotation Yrotation
            JOINT HandRight
            {
              OFFSET -1.098212 -7.289349 1.588913
              CHANNELS 3 Zrotation Xrotation Yrotation
              JOINT HandTipRight
              {
                OFFSET 0.117953 -5.455449 -1.083920
                CHANNELS 3 Zrotation Xrotation Yrotation
                End Site
                {
                  OFFSET 0 0 0
                }
              }
              JOINT ThumbRight
              {
                OFFSET -3.323820 -2.333736 -2.164124
                CHANNELS 3 Zrotation Xrotation Yrotation
                End Site
                {
                  OFFSET 0 0 0
                }
              }
            }
          }
        }
      }
    }
  }
  JOINT HipLeft
  {
    OFFSET -4.453847 1.757847 -8.199289
    CHANNELS 3 Zrotation Xrotation Yrotation
    JOINT KneeLeft
    {
      OFFSET -13.041804 -36.113411 -6.695217
      CHANNELS 3 Zrotation Xrotation Yrotation
      JOINT AnkleLeft
      {
        OFFSET -9.078661 -36.945846 4.135196
        CHANNELS 3 Zrotation Xrotation Yrotation
        JOINT FootLeft
        {
          OFFSET 1.267909 -7.565816 -6.999215
          CHANNELS 3 Zrotation Xrotation Yrotation
          End Site
          {
            OFFSET 0 0 0
          }
        }
      }
    }
  }
  JOINT HipRight
  {
    OFFSET 5.287926 0.072205 1.235658
    CHANNELS 3 Zrotation Xrotation Yrotation
    JOINT KneeRight
    {
      OFFSET -6.919029 -39.250881 1.044085
      CHANNELS 3 Zrotation Xrotation Yrotation
      JOINT AnkleRight
      {
        OFFSET -7.333168 -36.885118 12.168757
        CHANNELS 3 Zrotation Xrotation Yrotation
        JOINT FootRight
        {
          OFFSET 2.545765 -8.107094 -4.459691
          CHANNELS 3 Zrotation Xrotation Yrotation
          End Site
          {
            OFFSET 0 0 0
          }
        }
      }
    }
  }
}
MOTION
Frames: 8
Frame Time: 0.033333
-40.949583 84.170888 341.205564 -0.000000 0.000000 -44.083350 0.000000 0.000000 44.083350 -0.000000 0.000000 0.000000 -0.000000 0.000000 0.000000 0.000000 0.000000 0.000000 -0.000000 0.000000 0.000000 -0.000000 0.000000 0.000000 -0.000000 0.000000 0.000000 -0.000000 0.000000 0.000000 0.000000 0.000000 0.000000 0.000000 0.000000 0.000000 -0.000000 0.000000 0.000000 -0.000000 0.000000 0.000000 -0.000000 0.000000 0.000000 -0.000000 0.000000 0.000000 0.000000 0.000000 0.000000 0.000000 0.000000 0.000000 0.000000 0.000000 44.083350 -0.000000 0.000000 0.000000 -0.000000 0.000000 0.000000 0.000000 0.000000 0.000000 0.000000 0.000000 44.083350 -0.000000 0.000000 0.000000 -0.000000 0.000000 0.000000 0.000000 0.000000 0.000000
-40.931282 84.111521 341.358805 0.090169 -0.070456 -43.700797 -0.113866 -0.011360 43.700842 -0.000000 0.000000 0.000000 -0.000000 0.000000 0.000000 0.000000 0.000000 0.000000 -0.000000 0.000000 0.000000 -0.000000 0.000000 0.000000 -1.060645 -0.342647 -0.843247 1.180476 1.289843 0.913966 0.000000 0.000000 0.000000 0.000000 0.000000 0.000000 -0.000000 0.000000 0.000000 -0.000000 0.000000 0.000000 -1.677095 -0.156887 -0.343394 2.422268 1.426990 0.206016 0.000000 0.000000 0.000000 0.000000 0.000000 0.000000 -0.113866 -0.011360 43.700842 -0.000000 0.000000 0.000000 -1.011353 -0.053243 0.927996 0.000000 0.000000 0.000000 -0.113866 -0.011360 43.700842 -0.000000 0.000000 0.000000 -1.061131 -0.582513 0.397694 0.000000 0.000000 0.000000
-40.929908 84.071834 341.476641 0.162080 -0.104447 -43.380380 -0.189540 -0.035410 43.380469 -0.000000 0.000000 0.000000 -0.000000 0.000000 0.000000 0.000000 0.000000 0.000000 -0.000000 0.000000 0.000000 -0.000000 0.000000 0.000000 -2.338347 -0.344049 -1.702155 2.435961 2.079014 1.835067 0.000000 0.000000 0.000000 0.000000 0.000000 0.000000 -0.000000 0.000000 0.000000 -0.000000 0.000000 0.000000 -3.068169 -0.037802 -0.661544 4.434968 2.528314 0.404130 0.000000 0.000000 0.000000 0.000000 0.000000 0.000000 -0.189540 -0.035410 43.380469 -0.000000 0.000000 0.000000 -1.805008 -0.116753 1.654377 0.000000 0.000000 0.000000 -0.189540 -0.035410 43.380469 -0.000000 0.000000 0.000000 -1.931519 -1.150054 0.689537 0.000000 0.000000 0.000000
-40.945462 84.051826 341.559074 0.215856 -0.102102 -43.126183 -0.227340 -0.073042 43.126230 -0.000000 0.000000 0.000000 -0.000000 0.000000 0.000000 0.000000 0.000000 0.000000 -0.000000 0.000000 0.000000 -0.000000 0.000000 0.000000 -3.775962 0.041890 -2.514401 3.735857 2.319598 2.727519 0.000000 0.000000 0.000000 0.000000 0.000000 0.000000 -0.000000 0.000000 0.000000 -0.000000 0.000000 0.000000 -4.143742 0.361661 -0.940539 5.990659 3.254303 0.617114 0.000000 0.000000 0.000000 0.000000 0.000000 0.000000 -0.227340 -0.073042 43.126230 -0.000000 0.000000 0.000000 -2.378886 -0.182053 2.177274 0.000000 0.000000 0.000000 -0.227340 -0.073042 43.126230 -0.000000 0.000000 0.000000 -2.608877 -1.697665 0.876991 0.000000 0.000000 0.000000
-40.977944 84.051497 341.606101 0.251581 -0.063471 -42.941423 -0.227410 -0.124925 42.941314 -0.000000 0.000000 0.000000 -0.000000 0.000000 0.000000 0.000000 0.000000 0.000000 -0.000000 0.000000 0.000000 -0.000000 0.000000 0.000000 -5.290147 0.817136 -3.212070 5.023409 1.999466 3.549625 0.000000 0.000000 0.000000 0.000000 0.000000 0.000000 -0.000000 0.000000 0.000000 -0.000000 0.000000 0.000000 -4.882464 1.039636 -1.171971 7.055763 3.566083 0.859068 0.000000 0.000000 0.000000 0.000000 0.000000 0.000000 -0.227410 -0.124925 42.941314 -0.000000 0.000000 0.000000 -2.732117 -0.242982 2.495953 0.000000 0.000000 0.000000 -0.227410 -0.124925 42.941314 -0.000000 0.000000 0.000000 -3.091603 -2.221689 0.961785 0.000000 0.000000 0.000000
-41.027353 84.070848 341.617725 0.269299 0.011473 -42.828364 -0.189704 -0.191485 42.828020 -0.000000 0.000000 0.000000 -0.000000 0.000000 0.000000 0.000000 0.000000 0.000000 -0.000000 0.000000 0.000000 -0.000000 0.000000 0.000000 -6.786905 1.933535 -3.737603 6.223132 1.148367 4.260389 0.000000 0.000000 0.000000 0.000000 0.000000 0.000000 -0.000000 0.000000 0.000000 -0.000000 0.000000 0.000000 -5.271286 1.988445 -1.353567 7.613140 3.438195 1.132372 0.000000 0.000000 0.000000 0.000000 0.000000 0.000000 -0.723156 0.375239 42.549275 0.009770 -0.778234 0.279667 -2.864471 -0.295753 2.610267 0.000000 0.000000 0.000000 -0.189704 -0.191485 42.828020 -0.000000 0.000000 0.000000 -3.378483 -2.719698 0.945705 0.000000 0.000000 0.000000
-41.036335 84.085657 341.713252 0.327432 -0.022655 -42.762853 -0.255774 -0.205682 42.762459 -0.000000 0.000000 0.000000 -0.000000 0.000000 0.000000 0.000000 0.000000 0.000000 -0.000000 0.000000 0.000000 -0.000000 0.000000 0.000000 -7.656510 2.616276 -4.019611 6.171427 0.652233 4.753385 0.000000 0.000000 0.000000 0.000000 0.000000 0.000000 -0.000000 0.000000 0.000000 -0.000000 0.000000 0.000000 -5.083854 3.646855 -1.496849 7.797330 2.067810 1.418406 0.000000 0.000000 0.000000 0.000000 0.000000 0.000000 -0.919766 0.471467 42.427334 0.033295 -0.947787 0.336940 -2.577547 -0.593665 2.291391 0.000000 0.000000 0.000000 -0.255774 -0.205682 42.762459 -0.000000 0.000000 0.000000 -3.293623 -3.130229 0.757315 0.000000 0.000000 0.000000
-41.108968 84.146083 341.696759 0.314239 0.084174 -42.787014 -0.173440 -0.275227 42.786367 -0.000000 0.000000 0.000000 -0.000000 0.000000 0.000000 0.000000 0.000000 0.000000 -0.000000 0.000000 0.000000 -0.000000 0.000000 0.000000 -9.193400 4.683442 -4.087416 7.513628 -1.847194 5.116236 0.000000 0.000000 0.000000 0.000000 0.000000 0.000000 -0.000000 0.000000 0.000000 -0.084186 -1.090338 -0.014926 -4.958704 6.120586 -1.530546 9.311186 0.420928 1.502779 0.000000 0.000000 0.000000 0.000000 0.000000 0.000000 -0.715193 0.429805 42.452657 -0.076153 -0.885869 0.333852 -2.131691 -0.644019 1.867737 0.000000 0.000000 0.000000 -0.173440 -0.275227 42.786367 -0.000000 0.000000 0.000000 -3.122067 -3.594861 0.503650 0.000000 0.000000 0.000000
